Coordinates
version=1
nRows=41
nColumns=38
inDegrees=no

Units are S.I. units (second, meters, Newtons, ...)
If the header above contains a line with 'inDegrees', this indicates whether rotational values are in degrees (yes) or radians (no).

endheader
time	pelvis_tilt	pelvis_list	pelvis_rotation	pelvis_tx	pelvis_ty	pelvis_tz	hip_flexion_r	hip_adduction_r	hip_rotation_r	knee_angle_r	ankle_angle_r	subtalar_angle_r	mtp_angle_r	hip_flexion_l	hip_adduction_l	hip_rotation_l	knee_angle_l	ankle_angle_l	subtalar_angle_l	mtp_angle_l	lumbar_extension	lumbar_bending	lumbar_rotation	arm_flex_r	arm_add_r	arm_rot_r	elbow_flex_r	pro_sup_r	wrist_flex_r	wrist_dev_r	arm_flex_l	arm_add_l	arm_rot_l	elbow_flex_l	pro_sup_l	wrist_flex_l	wrist_dev_l
0.72	3.01706	1.29393	-1.51203	0.933097	0.0554352	0.975121	0.0341708	-0.0198775	0.188683	1.24842	0.00442613	0	0	-0.0507426	-0.0485809	-0.34526	0.361721	0.087109	0	0	-0.347098	0.0398163	0.118495	0.148642	-0.388433	-0.0864772	1.32639	0.959597	0	0	0.124848	-0.295751	-0.101767	1.33469	0.975301	0	0
0.73	2.99342	1.29939	-1.47921	0.930261	0.0654034	0.975737	0.0541706	-0.014207	0.173124	1.2315	0.0160233	0	0	-0.0416436	-0.0683186	-0.385633	0.398702	0.110856	0	0	-0.341817	0.0497699	0.109949	0.1488	-0.389687	-0.0864051	1.32534	0.96246	0	0	0.125689	-0.29415	-0.102262	1.33363	0.978286	0	0
0.74	2.96753	1.30369	-1.44819	0.92824	0.0753228	0.976566	0.073122	-0.00684615	0.161789	1.21175	0.0269664	0	0	-0.0440422	-0.0758854	-0.390839	0.407481	0.124084	0	0	-0.337819	0.0582437	0.105384	0.149056	-0.390596	-0.0850706	1.32379	0.962804	0	0	0.126244	-0.29341	-0.102656	1.33327	0.980101	0	0
0.75	2.97046	1.30334	-1.44402	0.925748	0.0849629	0.978299	0.0849189	-0.00971882	0.147852	1.18754	0.0377083	0	0	-0.0653108	-0.0663121	-0.373864	0.382039	0.122003	0	0	-0.340836	0.0600203	0.0980586	0.150573	-0.391237	-0.0837528	1.32167	0.961893	0	0	0.128368	-0.292698	-0.103177	1.33238	0.982439	0	0
0.76	2.95873	1.30457	-1.42688	0.923747	0.0946803	0.979603	0.0988248	-0.0073227	0.13565	1.1621	0.0477536	0	0	-0.0781826	-0.0653694	-0.367388	0.372653	0.12601	0	0	-0.341195	0.0650566	0.0938252	0.15024	-0.392313	-0.0835196	1.32121	0.960565	0	0	0.130074	-0.292159	-0.102495	1.33185	0.983842	0	0
0.77	2.94541	1.30522	-1.40654	0.92166	0.10433	0.980882	0.111366	-0.00500756	0.121166	1.13401	0.05754	0	0	-0.0913654	-0.064895	-0.357814	0.362831	0.129626	0	0	-0.342099	0.0712682	0.0889008	0.149051	-0.394647	-0.0817205	1.32272	0.93899	0	0	0.132284	-0.292008	-0.0998303	1.33134	0.977306	0	0
0.78	2.93123	1.30653	-1.38756	0.919874	0.113948	0.981982	0.125107	-0.00243052	0.108489	1.10547	0.067546	0	0	-0.103916	-0.0650342	-0.352223	0.35348	0.133744	0	0	-0.34244	0.0768924	0.086915	0.146708	-0.395678	-0.0845656	1.32395	0.945056	0	0	0.13483	-0.291125	-0.0979918	1.33017	0.982245	0	0
0.79	2.9164	1.3076	-1.3678	0.918163	0.123524	0.982972	0.138495	3.2823e-05	0.0949736	1.0759	0.0764438	0	0	-0.116275	-0.0657608	-0.34655	0.344716	0.137854	0	0	-0.342877	0.082844	0.0851326	0.143986	-0.396707	-0.0876867	1.32585	0.947687	0	0	0.137479	-0.290218	-0.0957919	1.32885	0.98548	0	0
0.8	2.90085	1.30866	-1.34758	0.916542	0.133063	0.983788	0.1519	0.00241093	0.0808809	1.04588	0.0843304	0	0	-0.128073	-0.0670283	-0.341218	0.337141	0.14242	0	0	-0.342998	0.0890042	0.0833316	0.14135	-0.397598	-0.090574	1.32808	0.948568	0	0	0.139632	-0.289169	-0.0943094	1.3278	0.987646	0	0
0.81	2.88444	1.30966	-1.32719	0.915078	0.142589	0.984436	0.165131	0.00503934	0.0670869	1.01531	0.0917015	0	0	-0.139542	-0.068736	-0.336413	0.330352	0.147103	0	0	-0.342827	0.0952224	0.0815499	0.139507	-0.398187	-0.0928007	1.32994	0.94904	0	0	0.140805	-0.287845	-0.0943864	1.32729	0.989566	0	0
0.82	2.86795	1.31052	-1.30729	0.913762	0.152098	0.984932	0.178165	0.00746988	0.0530048	0.984486	0.0990995	0	0	-0.150894	-0.0705916	-0.331947	0.324022	0.151863	0	0	-0.342443	0.10138	0.0794091	0.138796	-0.398411	-0.0938254	1.33108	0.949928	0	0	0.140946	-0.286385	-0.0960528	1.32716	0.991744	0	0
0.83	2.85199	1.31119	-1.2879	0.91251	0.161571	0.985279	0.190855	0.00933434	0.0376994	0.953641	0.106451	0	0	-0.161994	-0.0724599	-0.326935	0.318479	0.157137	0	0	-0.342102	0.10757	0.0765036	0.138908	-0.398213	-0.0943082	1.33192	0.950577	0	0	0.140326	-0.284895	-0.0988615	1.32771	0.993907	0	0
0.84	2.83744	1.31127	-1.26937	0.911285	0.171013	0.985564	0.202321	0.0104834	0.0205881	0.922121	0.113422	0	0	-0.173288	-0.0744912	-0.321063	0.313848	0.162473	0	0	-0.342262	0.113798	0.0725353	0.139904	-0.397599	-0.0945276	1.33232	0.950852	0	0	0.139254	-0.283504	-0.102588	1.32864	0.995942	0	0
0.85	2.82407	1.31106	-1.25263	0.910202	0.180436	0.985726	0.213126	0.0113699	0.0033457	0.890337	0.120894	0	0	-0.184594	-0.0766677	-0.316524	0.310033	0.167924	0	0	-0.342575	0.119676	0.0688941	0.141404	-0.397564	-0.0925119	1.33308	0.935278	0	0	0.138059	-0.28291	-0.104859	1.32993	0.986999	0	0
0.86	2.81101	1.31038	-1.23536	0.909097	0.189871	0.985809	0.222503	0.0117636	-0.0161696	0.857321	0.128068	0	0	-0.195932	-0.0792976	-0.311215	0.306978	0.173593	0	0	-0.343122	0.126042	0.0646916	0.143231	-0.396248	-0.0943987	1.3321	0.956409	0	0	0.137487	-0.281085	-0.109744	1.32927	1.00438	0	0
0.87	2.80147	1.30999	-1.22199	0.90809	0.199328	0.985716	0.231907	0.010592	-0.0370933	0.824991	0.134954	0	0	-0.207296	-0.080892	-0.306627	0.303934	0.179115	0	0	-0.343406	0.131302	0.0609437	0.144858	-0.395881	-0.0942013	1.33216	0.957411	0	0	0.137174	-0.28032	-0.111775	1.32904	1.00585	0	0
0.88	2.80694	1.31116	-1.22225	0.907025	0.209254	0.985217	0.246309	-0.0062122	-0.084716	0.804361	0.144075	0	0	-0.219174	-0.0781281	-0.301396	0.300054	0.185134	0	0	-0.341778	0.132267	0.0550524	0.145008	-0.394816	-0.0941742	1.33262	0.958206	0	0	0.135721	-0.280716	-0.113504	1.33009	1.0069	0	0
0.89	2.79661	1.30873	-1.20784	0.906154	0.218782	0.985106	0.251494	-0.010726	-0.119549	0.770015	0.149114	0	0	-0.232316	-0.0815522	-0.299497	0.297838	0.19137	0	0	-0.343876	0.138577	0.0519262	0.146828	-0.395122	-0.0937541	1.33278	0.958387	0	0	0.136113	-0.279245	-0.11561	1.32949	1.00791	0	0
0.9	2.7875	1.30767	-1.19608	0.905507	0.228221	0.984768	0.257712	-0.0099153	-0.1399	0.73508	0.153079	0	0	-0.243897	-0.084128	-0.299039	0.296448	0.197569	0	0	-0.344915	0.143592	0.0500179	0.149129	-0.395469	-0.0929191	1.33233	0.957766	0	0	0.136757	-0.277707	-0.117604	1.32855	1.00836	0	0
0.91	2.7794	1.30651	-1.18552	0.904994	0.237697	0.984353	0.262881	-0.00873833	-0.160203	0.699356	0.157111	0	0	-0.255481	-0.0868152	-0.299127	0.295888	0.203738	0	0	-0.346025	0.148255	0.0481828	0.151831	-0.395771	-0.0915773	1.33134	0.956834	0	0	0.137405	-0.276191	-0.119727	1.32749	1.00827	0	0
0.92	2.77155	1.30531	-1.17513	0.904568	0.247204	0.983818	0.267194	-0.00714659	-0.180944	0.663113	0.16181	0	0	-0.2668	-0.0897467	-0.299205	0.296013	0.210418	0	0	-0.347202	0.152887	0.0463683	0.154618	-0.396211	-0.0901958	1.33046	0.955284	0	0	0.137917	-0.274798	-0.121904	1.32726	1.00746	0	0
0.93	2.76481	1.305	-1.167	0.904361	0.256786	0.983089	0.272039	-0.0052949	-0.199595	0.627309	0.167636	0	0	-0.277224	-0.0920933	-0.300811	0.296737	0.217106	0	0	-0.347705	0.156423	0.0457725	0.156946	-0.396683	-0.0889816	1.32995	0.95289	0	0	0.138379	-0.273713	-0.123379	1.32725	1.00569	0	0
0.94	2.75705	1.30307	-1.15586	0.904029	0.266456	0.982396	0.273455	-0.00268666	-0.221112	0.588859	0.173047	0	0	-0.288315	-0.0963341	-0.301434	0.299007	0.22451	0	0	-0.349455	0.161616	0.0437371	0.15946	-0.397178	-0.088839	1.32911	0.960978	0	0	0.139124	-0.271694	-0.126739	1.32678	1.01684	0	0
0.95	2.75106	1.30248	-1.14835	0.904003	0.276226	0.981494	0.276068	8.67646e-05	-0.239852	0.551333	0.179037	0	0	-0.298486	-0.0992625	-0.303284	0.301585	0.231321	0	0	-0.350202	0.165038	0.0437752	0.160974	-0.397819	-0.0887333	1.32911	0.96125	0	0	0.140004	-0.270513	-0.127878	1.32665	1.01795	0	0
0.96	2.74436	1.30151	-1.13977	0.904067	0.286104	0.980526	0.27711	0.00390091	-0.258883	0.512523	0.184114	0	0	-0.308645	-0.102962	-0.305021	0.305063	0.238341	0	0	-0.351062	0.168895	0.0440614	0.161868	-0.398541	-0.0891491	1.32954	0.961405	0	0	0.141391	-0.269133	-0.12853	1.32573	1.01931	0	0
0.97	2.73719	1.30013	-1.13047	0.904244	0.29613	0.979508	0.276452	0.00891952	-0.277393	0.472515	0.187962	0	0	-0.319097	-0.107405	-0.307219	0.308954	0.245236	0	0	-0.352013	0.173109	0.0445085	0.162305	-0.399087	-0.0901232	1.33026	0.961429	0	0	0.142851	-0.267649	-0.129201	1.3244	1.02207	0	0
0.98	2.72908	1.29811	-1.12066	0.904582	0.306286	0.978476	0.273422	0.0160727	-0.292159	0.429473	0.189257	0	0	-0.330205	-0.112654	-0.310852	0.313162	0.252044	0	0	-0.353466	0.177743	0.0458074	0.162375	-0.399509	-0.0917068	1.33137	0.961815	0	0	0.144434	-0.266046	-0.129867	1.3232	1.02397	0	0
0.99	2.69325	1.28643	-1.0813	0.90479	0.315882	0.978606	0.231035	0.0598728	-0.226398	0.305191	0.151314	0	0	-0.345575	-0.13157	-0.316398	0.319299	0.258094	0	0	-0.363055	0.19579	0.0490627	0.165347	-0.402124	-0.0934025	1.3319	0.962395	0	0	0.14886	-0.261174	-0.130616	1.31897	1.02307	0	0
1	2.69014	1.28539	-1.07528	0.905272	0.326498	0.97733	0.22481	0.066375	-0.233713	0.258092	0.146932	0	0	-0.356382	-0.135912	-0.3186	0.323868	0.264498	0	0	-0.362948	0.198996	0.0486671	0.164701	-0.401593	-0.0952537	1.33273	0.961412	0	0	0.149437	-0.260795	-0.130206	1.31852	1.02118	0	0
1.01	2.71225	1.29837	-1.0993	0.906397	0.337772	0.974449	0.267061	0.036148	-0.323346	0.306817	0.192855	0	0	-0.358512	-0.124582	-0.319997	0.327557	0.271108	0	0	-0.350718	0.186309	0.04847	0.16115	-0.397978	-0.0970893	1.33303	0.958727	0	0	0.146742	-0.26427	-0.128844	1.32087	1.01689	0	0
1.02	2.68708	1.28577	-1.06764	0.906647	0.348316	0.974334	0.212499	0.078673	-0.237134	0.167333	0.138007	0	0	-0.377289	-0.142363	-0.323348	0.332004	0.275598	0	0	-0.359942	0.202915	0.0477118	0.163769	-0.399693	-0.0978864	1.33282	0.963995	0	0	0.149306	-0.260613	-0.130932	1.31782	1.02192	0	0
1.03	2.68746	1.28699	-1.06607	0.907465	0.359495	0.972627	0.208086	0.0833704	-0.23762	0.129457	0.13545	0	0	-0.387498	-0.144471	-0.325508	0.335549	0.280019	0	0	-0.357338	0.203805	0.0469043	0.163917	-0.398885	-0.0980709	1.33199	0.965738	0	0	0.148771	-0.260787	-0.131817	1.3176	1.02317	0	0
1.04	2.68859	1.28813	-1.06481	0.908294	0.370859	0.970877	0.20288	0.0877975	-0.235019	0.0940715	0.130868	0	0	-0.398099	-0.146799	-0.327824	0.339109	0.284238	0	0	-0.354676	0.204809	0.0453718	0.164596	-0.398038	-0.0976989	1.33071	0.967161	0	0	0.147974	-0.261087	-0.132786	1.31735	1.02434	0	0
1.05	2.69198	1.28932	-1.06554	0.909132	0.382387	0.969072	0.197808	0.090926	-0.230194	0.063956	0.126707	0	0	-0.408898	-0.148681	-0.32949	0.343065	0.287916	0	0	-0.352206	0.205434	0.0432893	0.165596	-0.397201	-0.096905	1.32948	0.968388	0	0	0.147035	-0.261507	-0.134092	1.31742	1.02568	0	0
1.06	2.69759	1.29039	-1.06804	0.909968	0.394073	0.967231	0.19359	0.0925417	-0.225649	0.0413501	0.123981	0	0	-0.419857	-0.150357	-0.330344	0.34761	0.290752	0	0	-0.350092	0.205835	0.0407534	0.166831	-0.396376	-0.0960445	1.32849	0.969227	0	0	0.146138	-0.261908	-0.135394	1.31772	1.02668	0	0
1.07	2.70466	1.29115	-1.07141	0.910779	0.4059	0.965366	0.190485	0.0929506	-0.222461	0.0271299	0.123028	0	0	-0.430641	-0.152254	-0.330404	0.353336	0.292733	0	0	-0.348443	0.206375	0.0377667	0.168291	-0.395602	-0.0950577	1.32729	0.969744	0	0	0.145336	-0.262176	-0.136656	1.31818	1.02725	0	0
1.08	2.71133	1.29159	-1.0737	0.911559	0.417849	0.963447	0.19024	0.0924127	-0.223508	0.0252951	0.125803	0	0	-0.440409	-0.155229	-0.329967	0.361796	0.295031	0	0	-0.346986	0.207603	0.0341541	0.170258	-0.395324	-0.0929192	1.32595	0.965538	0	0	0.144484	-0.262398	-0.137988	1.31891	1.02522	0	0
1.09	2.71745	1.29185	-1.07607	0.912413	0.429954	0.961496	0.192496	0.0913739	-0.225135	0.0347305	0.129877	0	0	-0.449574	-0.158544	-0.329531	0.372053	0.295826	0	0	-0.345732	0.2091	0.0317258	0.171754	-0.395558	-0.09143	1.32525	0.963264	0	0	0.144093	-0.262397	-0.138472	1.31911	1.0229	0	0
1.1	2.72371	1.29278	-1.07728	0.913188	0.442246	0.959406	0.199275	0.088131	-0.234552	0.0582927	0.139757	0	0	-0.456073	-0.162801	-0.327401	0.386428	0.297176	0	0	-0.343373	0.210782	0.0279275	0.173195	-0.395524	-0.0906793	1.32415	0.971097	0	0	0.143472	-0.261955	-0.140361	1.31895	1.0312	0	0
1.11	2.73105	1.29278	-1.07863	0.913962	0.454848	0.957304	0.203752	0.0848807	-0.241121	0.0841203	0.14737	0	0	-0.462251	-0.168088	-0.323531	0.403515	0.297221	0	0	-0.341463	0.212914	0.0237225	0.173872	-0.395912	-0.0895166	1.32409	0.970888	0	0	0.142766	-0.262045	-0.140439	1.31913	1.03111	0	0
1.12	2.73894	1.29258	-1.07946	0.914726	0.467773	0.955125	0.206983	0.0813772	-0.246935	0.113654	0.155118	0	0	-0.466649	-0.174649	-0.318433	0.424716	0.296272	0	0	-0.338975	0.21527	0.0185672	0.173962	-0.396229	-0.0885438	1.32412	0.970623	0	0	0.141783	-0.262197	-0.140249	1.31927	1.03117	0	0
